STARTFONT 2.1
FONT -barbaross-creeper-bold-r-normal--15-150-100-100-m-80-ISO8859-1
SIZE 12 100 100
FONTBOUNDINGBOX 9 15 0 -3
STARTPROPERTIES 19
POINT_SIZE 150
PIXEL_SIZE 15
RESOLUTION_X 100
RESOLUTION_Y 100
FONT_ASCENT 12
FONT_DESCENT 3
AVERAGE_WIDTH 80
SPACING "m"
_GBDFED_INFO "Edited with gbdfed 1.6."
CHARSET_ENCODING "1"
CHARSET_REGISTRY "ISO8859"
FOUNDRY "barbaross"
FAMILY_NAME "creeper"
WEIGHT_NAME "bold"
SLANT "r"
SETWIDTH_NAME "normal"
ADD_STYLE_NAME ""
WEIGHT 15
DEFAULT_CHAR 0
ENDPROPERTIES
CHARS 190
STARTCHAR char32
ENCODING 32
SWIDTH 480 0
DWIDTH 8 0
BBX 0 0 0 0
BITMAP
ENDCHAR
STARTCHAR char33
ENCODING 33
SWIDTH 480 0
DWIDTH 8 0
BBX 2 9 4 0
BITMAP
C0
C0
C0
C0
C0
C0
00
C0
C0
ENDCHAR
STARTCHAR char34
ENCODING 34
SWIDTH 480 0
DWIDTH 8 0
BBX 4 5 3 4
BITMAP
F0
F0
F0
F0
F0
ENDCHAR
STARTCHAR char35
ENCODING 35
SWIDTH 480 0
DWIDTH 8 0
BBX 8 8 1 0
BITMAP
3C
3C
FF
3C
3C
FF
3C
3C
ENDCHAR
STARTCHAR char36
ENCODING 36
SWIDTH 480 0
DWIDTH 8 0
BBX 8 9 1 0
BITMAP
18
7F
D8
D8
7E
1B
1B
FE
18
ENDCHAR
STARTCHAR char37
ENCODING 37
SWIDTH 480 0
DWIDTH 8 0
BBX 7 8 1 0
BITMAP
60
F6
6C
18
30
6C
DE
0C
ENDCHAR
STARTCHAR char38
ENCODING 38
SWIDTH 480 0
DWIDTH 8 0
BBX 8 9 1 0
BITMAP
70
D8
D8
D8
70
D8
CF
C6
7F
ENDCHAR
STARTCHAR char39
ENCODING 39
SWIDTH 480 0
DWIDTH 8 0
BBX 2 5 4 4
BITMAP
C0
C0
C0
C0
C0
ENDCHAR
STARTCHAR char40
ENCODING 40
SWIDTH 480 0
DWIDTH 8 0
BBX 4 12 2 -2
BITMAP
30
60
C0
C0
C0
C0
C0
C0
C0
C0
60
30
ENDCHAR
STARTCHAR char41
ENCODING 41
SWIDTH 480 0
DWIDTH 8 0
BBX 4 12 3 -2
BITMAP
C0
60
30
30
30
30
30
30
30
30
60
C0
ENDCHAR
STARTCHAR char42
ENCODING 42
SWIDTH 480 0
DWIDTH 8 0
BBX 6 5 1 2
BITMAP
78
30
FC
30
78
ENDCHAR
STARTCHAR char43
ENCODING 43
SWIDTH 480 0
DWIDTH 8 0
BBX 8 7 1 1
BITMAP
18
18
18
FF
18
18
18
ENDCHAR
STARTCHAR char44
ENCODING 44
SWIDTH 480 0
DWIDTH 8 0
BBX 4 3 2 -1
BITMAP
30
30
E0
ENDCHAR
STARTCHAR char45
ENCODING 45
SWIDTH 480 0
DWIDTH 8 0
BBX 7 1 1 4
BITMAP
FE
ENDCHAR
STARTCHAR char46
ENCODING 46
SWIDTH 480 0
DWIDTH 8 0
BBX 3 1 3 0
BITMAP
E0
ENDCHAR
STARTCHAR char47
ENCODING 47
SWIDTH 480 0
DWIDTH 8 0
BBX 7 10 1 -1
BITMAP
06
0C
0C
18
18
30
30
60
60
C0
ENDCHAR
STARTCHAR char48
ENCODING 48
SWIDTH 480 0
DWIDTH 8 0
BBX 7 9 1 0
BITMAP
7C
C6
C6
CE
DE
F6
E6
C6
7C
ENDCHAR
STARTCHAR char49
ENCODING 49
SWIDTH 480 0
DWIDTH 8 0
BBX 4 9 2 0
BITMAP
30
70
F0
30
30
30
30
30
30
ENDCHAR
STARTCHAR char50
ENCODING 50
SWIDTH 480 0
DWIDTH 8 0
BBX 7 9 1 0
BITMAP
7C
C6
06
0C
18
30
60
C0
FE
ENDCHAR
STARTCHAR char51
ENCODING 51
SWIDTH 480 0
DWIDTH 8 0
BBX 7 9 1 0
BITMAP
FE
0C
18
3C
06
06
06
C6
7C
ENDCHAR
STARTCHAR char52
ENCODING 52
SWIDTH 480 0
DWIDTH 8 0
BBX 7 9 1 0
BITMAP
1C
3C
6C
CC
CC
FE
0C
0C
0C
ENDCHAR
STARTCHAR char53
ENCODING 53
SWIDTH 480 0
DWIDTH 8 0
BBX 7 9 1 0
BITMAP
FE
C0
C0
FC
C6
06
06
C6
7C
ENDCHAR
STARTCHAR char54
ENCODING 54
SWIDTH 480 0
DWIDTH 8 0
BBX 7 9 1 0
BITMAP
7C
C6
C0
C0
FC
C6
C6
C6
7C
ENDCHAR
STARTCHAR char55
ENCODING 55
SWIDTH 480 0
DWIDTH 8 0
BBX 7 9 1 0
BITMAP
FE
06
06
0C
0C
18
18
30
30
ENDCHAR
STARTCHAR char56
ENCODING 56
SWIDTH 480 0
DWIDTH 8 0
BBX 7 9 1 0
BITMAP
7C
C6
C6
C6
7C
C6
C6
C6
7C
ENDCHAR
STARTCHAR char57
ENCODING 57
SWIDTH 480 0
DWIDTH 8 0
BBX 7 9 1 0
BITMAP
7C
C6
C6
C6
7E
06
06
C6
7C
ENDCHAR
STARTCHAR char58
ENCODING 58
SWIDTH 480 0
DWIDTH 8 0
BBX 2 8 3 0
BITMAP
C0
C0
00
00
00
00
C0
C0
ENDCHAR
STARTCHAR char59
ENCODING 59
SWIDTH 480 0
DWIDTH 8 0
BBX 4 9 1 -1
BITMAP
30
30
00
00
00
00
30
30
E0
ENDCHAR
STARTCHAR char60
ENCODING 60
SWIDTH 480 0
DWIDTH 8 0
BBX 5 7 1 1
BITMAP
18
30
60
C0
60
30
18
ENDCHAR
STARTCHAR char61
ENCODING 61
SWIDTH 480 0
DWIDTH 8 0
BBX 7 4 1 2
BITMAP
FE
00
00
FE
ENDCHAR
STARTCHAR char62
ENCODING 62
SWIDTH 480 0
DWIDTH 8 0
BBX 5 7 1 1
BITMAP
C0
60
30
18
30
60
C0
ENDCHAR
STARTCHAR char63
ENCODING 63
SWIDTH 480 0
DWIDTH 8 0
BBX 7 9 1 0
BITMAP
FC
06
06
1E
30
30
00
30
30
ENDCHAR
STARTCHAR char64
ENCODING 64
SWIDTH 480 0
DWIDTH 8 0
BBX 7 8 1 0
BITMAP
FE
C6
FE
F6
F6
FE
C0
FE
ENDCHAR
STARTCHAR char65
ENCODING 65
SWIDTH 480 0
DWIDTH 8 0
BBX 7 9 1 0
BITMAP
7C
C6
C6
C6
FE
C6
C6
C6
C6
ENDCHAR
STARTCHAR char66
ENCODING 66
SWIDTH 480 0
DWIDTH 8 0
BBX 7 9 1 0
BITMAP
F8
CC
CC
CC
FC
C6
C6
C6
FC
ENDCHAR
STARTCHAR char67
ENCODING 67
SWIDTH 480 0
DWIDTH 8 0
BBX 7 9 1 0
BITMAP
7C
C6
C0
C0
C0
C0
C0
C6
7C
ENDCHAR
STARTCHAR char68
ENCODING 68
SWIDTH 480 0
DWIDTH 8 0
BBX 7 9 1 0
BITMAP
F8
CC
C6
C6
C6
C6
C6
CC
F8
ENDCHAR
STARTCHAR char69
ENCODING 69
SWIDTH 480 0
DWIDTH 8 0
BBX 7 9 1 0
BITMAP
FE
C0
C0
C0
F0
C0
C0
C0
FE
ENDCHAR
STARTCHAR char70
ENCODING 70
SWIDTH 480 0
DWIDTH 8 0
BBX 7 9 1 0
BITMAP
FE
C0
C0
C0
F0
C0
C0
C0
C0
ENDCHAR
STARTCHAR char71
ENCODING 71
SWIDTH 480 0
DWIDTH 8 0
BBX 7 9 1 0
BITMAP
7C
C6
C0
C0
C0
DE
C6
C6
7C
ENDCHAR
STARTCHAR char72
ENCODING 72
SWIDTH 480 0
DWIDTH 8 0
BBX 7 9 1 0
BITMAP
C6
C6
C6
FE
C6
C6
C6
C6
C6
ENDCHAR
STARTCHAR char73
ENCODING 73
SWIDTH 480 0
DWIDTH 8 0
BBX 6 9 1 0
BITMAP
FC
30
30
30
30
30
30
30
FC
ENDCHAR
STARTCHAR char74
ENCODING 74
SWIDTH 480 0
DWIDTH 8 0
BBX 7 9 1 0
BITMAP
3E
06
06
06
06
06
C6
C6
7E
ENDCHAR
STARTCHAR char75
ENCODING 75
SWIDTH 480 0
DWIDTH 8 0
BBX 7 9 1 0
BITMAP
C6
CC
D8
F0
D8
CC
CC
C6
C6
ENDCHAR
STARTCHAR char76
ENCODING 76
SWIDTH 480 0
DWIDTH 8 0
BBX 7 9 1 0
BITMAP
C0
C0
C0
C0
C0
C0
C0
C0
FE
ENDCHAR
STARTCHAR char77
ENCODING 77
SWIDTH 480 0
DWIDTH 8 0
BBX 7 9 1 0
BITMAP
C6
EE
FE
C6
C6
C6
C6
C6
C6
ENDCHAR
STARTCHAR char78
ENCODING 78
SWIDTH 480 0
DWIDTH 8 0
BBX 7 9 1 0
BITMAP
C6
E6
E6
F6
DE
CE
CE
C6
C6
ENDCHAR
STARTCHAR char79
ENCODING 79
SWIDTH 480 0
DWIDTH 8 0
BBX 7 9 1 0
BITMAP
7C
C6
C6
C6
C6
C6
C6
C6
7C
ENDCHAR
STARTCHAR char80
ENCODING 80
SWIDTH 480 0
DWIDTH 8 0
BBX 7 9 1 0
BITMAP
FC
C6
C6
C6
FC
C0
C0
C0
C0
ENDCHAR
STARTCHAR char81
ENCODING 81
SWIDTH 480 0
DWIDTH 8 0
BBX 7 11 1 -2
BITMAP
7C
C6
C6
C6
C6
C6
DE
CE
7E
06
06
ENDCHAR
STARTCHAR char82
ENCODING 82
SWIDTH 480 0
DWIDTH 8 0
BBX 7 9 1 0
BITMAP
FC
C6
C6
C6
FC
F0
D8
CC
C6
ENDCHAR
STARTCHAR char83
ENCODING 83
SWIDTH 480 0
DWIDTH 8 0
BBX 7 9 1 0
BITMAP
7C
C6
C0
C0
7C
06
06
C6
7C
ENDCHAR
STARTCHAR char84
ENCODING 84
SWIDTH 480 0
DWIDTH 8 0
BBX 6 9 1 0
BITMAP
FC
30
30
30
30
30
30
30
30
ENDCHAR
STARTCHAR char85
ENCODING 85
SWIDTH 480 0
DWIDTH 8 0
BBX 7 9 1 0
BITMAP
C6
C6
C6
C6
C6
C6
C6
C6
7E
ENDCHAR
STARTCHAR char86
ENCODING 86
SWIDTH 480 0
DWIDTH 8 0
BBX 7 9 1 0
BITMAP
C6
C6
C6
C6
C6
C6
C6
6C
38
ENDCHAR
STARTCHAR char87
ENCODING 87
SWIDTH 480 0
DWIDTH 8 0
BBX 7 9 1 0
BITMAP
C6
C6
C6
C6
C6
C6
FE
EE
C6
ENDCHAR
STARTCHAR char88
ENCODING 88
SWIDTH 480 0
DWIDTH 8 0
BBX 7 9 1 0
BITMAP
C6
C6
6C
38
6C
C6
C6
C6
C6
ENDCHAR
STARTCHAR char89
ENCODING 89
SWIDTH 480 0
DWIDTH 8 0
BBX 7 9 1 0
BITMAP
C6
C6
C6
C6
7E
06
C6
C6
7E
ENDCHAR
STARTCHAR char90
ENCODING 90
SWIDTH 480 0
DWIDTH 8 0
BBX 7 9 1 0
BITMAP
FE
06
06
0C
18
30
60
C0
FE
ENDCHAR
STARTCHAR char91
ENCODING 91
SWIDTH 480 0
DWIDTH 8 0
BBX 4 12 2 -2
BITMAP
F0
C0
C0
C0
C0
C0
C0
C0
C0
C0
C0
F0
ENDCHAR
STARTCHAR char92
ENCODING 92
SWIDTH 480 0
DWIDTH 8 0
BBX 7 10 1 -1
BITMAP
C0
60
60
30
30
18
18
0C
0C
06
ENDCHAR
STARTCHAR char93
ENCODING 93
SWIDTH 480 0
DWIDTH 8 0
BBX 4 12 2 -2
BITMAP
F0
30
30
30
30
30
30
30
30
30
30
F0
ENDCHAR
STARTCHAR char94
ENCODING 94
SWIDTH 480 0
DWIDTH 8 0
BBX 7 3 1 6
BITMAP
38
6C
C6
ENDCHAR
STARTCHAR char95
ENCODING 95
SWIDTH 480 0
DWIDTH 8 0
BBX 7 1 1 0
BITMAP
FE
ENDCHAR
STARTCHAR char96
ENCODING 96
SWIDTH 480 0
DWIDTH 8 0
BBX 5 4 2 4
BITMAP
C0
60
30
18
ENDCHAR
STARTCHAR char97
ENCODING 97
SWIDTH 480 0
DWIDTH 8 0
BBX 7 7 1 0
BITMAP
7E
C6
C6
C6
C6
C6
7E
ENDCHAR
STARTCHAR char98
ENCODING 98
SWIDTH 480 0
DWIDTH 8 0
BBX 7 9 1 0
BITMAP
C0
C0
FC
C6
C6
C6
C6
C6
FC
ENDCHAR
STARTCHAR char99
ENCODING 99
SWIDTH 480 0
DWIDTH 8 0
BBX 7 7 1 0
BITMAP
7C
C6
C0
C0
C0
C6
7C
ENDCHAR
STARTCHAR char100
ENCODING 100
SWIDTH 480 0
DWIDTH 8 0
BBX 7 9 1 0
BITMAP
06
06
7E
C6
C6
C6
C6
C6
7E
ENDCHAR
STARTCHAR char101
ENCODING 101
SWIDTH 480 0
DWIDTH 8 0
BBX 7 7 1 0
BITMAP
7C
C6
C6
FE
C0
C0
7E
ENDCHAR
STARTCHAR char102
ENCODING 102
SWIDTH 480 0
DWIDTH 8 0
BBX 7 12 1 -3
BITMAP
1C
36
30
30
FC
30
30
30
30
30
30
E0
ENDCHAR
STARTCHAR char103
ENCODING 103
SWIDTH 480 0
DWIDTH 8 0
BBX 7 10 1 -3
BITMAP
7C
C6
C6
C6
C6
C6
7E
06
06
7C
ENDCHAR
STARTCHAR char104
ENCODING 104
SWIDTH 480 0
DWIDTH 8 0
BBX 7 9 1 0
BITMAP
C0
C0
FC
C6
C6
C6
C6
C6
C6
ENDCHAR
STARTCHAR char105
ENCODING 105
SWIDTH 480 0
DWIDTH 8 0
BBX 6 9 1 0
BITMAP
30
30
00
F0
30
30
30
30
3C
ENDCHAR
STARTCHAR char106
ENCODING 106
SWIDTH 480 0
DWIDTH 8 0
BBX 4 12 1 -3
BITMAP
30
30
00
F0
30
30
30
30
30
30
30
E0
ENDCHAR
STARTCHAR char107
ENCODING 107
SWIDTH 480 0
DWIDTH 8 0
BBX 7 9 1 0
BITMAP
C0
C0
CC
CC
D8
F0
D8
CC
C6
ENDCHAR
STARTCHAR char108
ENCODING 108
SWIDTH 480 0
DWIDTH 8 0
BBX 4 9 2 0
BITMAP
C0
C0
C0
C0
C0
C0
C0
C0
70
ENDCHAR
STARTCHAR char109
ENCODING 109
SWIDTH 480 0
DWIDTH 8 0
BBX 7 7 1 0
BITMAP
C6
EE
FE
C6
C6
C6
C6
ENDCHAR
STARTCHAR char110
ENCODING 110
SWIDTH 480 0
DWIDTH 8 0
BBX 7 7 1 0
BITMAP
FC
C6
C6
C6
C6
C6
C6
ENDCHAR
STARTCHAR char111
ENCODING 111
SWIDTH 480 0
DWIDTH 8 0
BBX 7 7 1 0
BITMAP
7C
C6
C6
C6
C6
C6
7C
ENDCHAR
STARTCHAR char112
ENCODING 112
SWIDTH 480 0
DWIDTH 8 0
BBX 7 10 1 -3
BITMAP
7C
C6
C6
C6
C6
C6
FC
C0
C0
C0
ENDCHAR
STARTCHAR char113
ENCODING 113
SWIDTH 480 0
DWIDTH 8 0
BBX 7 10 1 -3
BITMAP
7C
C6
C6
C6
C6
C6
7E
06
06
06
ENDCHAR
STARTCHAR char114
ENCODING 114
SWIDTH 480 0
DWIDTH 8 0
BBX 7 7 1 0
BITMAP
FC
C6
C6
C0
C0
C0
C0
ENDCHAR
STARTCHAR char115
ENCODING 115
SWIDTH 480 0
DWIDTH 8 0
BBX 7 7 1 0
BITMAP
7E
C0
C0
7C
06
06
FC
ENDCHAR
STARTCHAR char116
ENCODING 116
SWIDTH 480 0
DWIDTH 8 0
BBX 6 9 1 0
BITMAP
30
30
FC
30
30
30
30
30
1C
ENDCHAR
STARTCHAR char117
ENCODING 117
SWIDTH 480 0
DWIDTH 8 0
BBX 7 7 1 0
BITMAP
C6
C6
C6
C6
C6
C6
7E
ENDCHAR
STARTCHAR char118
ENCODING 118
SWIDTH 480 0
DWIDTH 8 0
BBX 7 7 1 0
BITMAP
C6
C6
C6
C6
C6
6C
38
ENDCHAR
STARTCHAR char119
ENCODING 119
SWIDTH 480 0
DWIDTH 8 0
BBX 7 7 1 0
BITMAP
C6
C6
C6
C6
FE
EE
C6
ENDCHAR
STARTCHAR char120
ENCODING 120
SWIDTH 480 0
DWIDTH 8 0
BBX 7 7 1 0
BITMAP
C6
C6
6C
38
6C
C6
C6
ENDCHAR
STARTCHAR char121
ENCODING 121
SWIDTH 480 0
DWIDTH 8 0
BBX 7 10 1 -3
BITMAP
C6
C6
C6
C6
C6
C6
7E
06
C6
7C
ENDCHAR
STARTCHAR char122
ENCODING 122
SWIDTH 480 0
DWIDTH 8 0
BBX 7 7 1 0
BITMAP
FE
0C
18
30
60
C0
FE
ENDCHAR
STARTCHAR char123
ENCODING 123
SWIDTH 480 0
DWIDTH 8 0
BBX 6 12 1 -2
BITMAP
1C
30
30
30
70
C0
C0
70
30
30
30
1C
ENDCHAR
STARTCHAR char124
ENCODING 124
SWIDTH 480 0
DWIDTH 8 0
BBX 2 9 4 0
BITMAP
C0
C0
C0
C0
C0
C0
C0
C0
C0
ENDCHAR
STARTCHAR char125
ENCODING 125
SWIDTH 480 0
DWIDTH 8 0
BBX 6 12 1 -2
BITMAP
E0
30
30
30
38
0C
0C
38
30
30
30
E0
ENDCHAR
STARTCHAR char126
ENCODING 126
SWIDTH 480 0
DWIDTH 8 0
BBX 7 2 1 4
BITMAP
76
DC
ENDCHAR
STARTCHAR char161
ENCODING 161
SWIDTH 480 0
DWIDTH 8 0
BBX 2 9 4 0
BITMAP
C0
C0
00
00
C0
C0
C0
C0
C0
ENDCHAR
STARTCHAR char162
ENCODING 162
SWIDTH 480 0
DWIDTH 8 0
BBX 7 9 1 -1
BITMAP
30
7C
F6
F0
F0
F0
F6
7C
30
ENDCHAR
STARTCHAR char163
ENCODING 163
SWIDTH 480 0
DWIDTH 8 0
BBX 7 9 1 0
BITMAP
7C
C6
C6
C0
F0
C0
C6
F6
DE
ENDCHAR
STARTCHAR char164
ENCODING 164
SWIDTH 480 0
DWIDTH 8 0
BBX 8 7 1 0
BITMAP
C3
7E
66
66
66
7E
C3
ENDCHAR
STARTCHAR char165
ENCODING 165
SWIDTH 480 0
DWIDTH 8 0
BBX 8 9 1 0
BITMAP
66
66
FF
66
FF
66
3C
18
18
ENDCHAR
STARTCHAR char166
ENCODING 166
SWIDTH 480 0
DWIDTH 8 0
BBX 2 9 4 0
BITMAP
C0
C0
C0
00
00
C0
C0
C0
C0
ENDCHAR
STARTCHAR char167
ENCODING 167
SWIDTH 480 0
DWIDTH 8 0
BBX 7 9 1 0
BITMAP
7C
C6
C0
FC
C6
7E
06
C6
7C
ENDCHAR
STARTCHAR char168
ENCODING 168
SWIDTH 480 0
DWIDTH 8 0
BBX 6 1 2 8
BITMAP
FC
ENDCHAR
STARTCHAR char169
ENCODING 169
SWIDTH 480 0
DWIDTH 8 0
BBX 8 9 1 0
BITMAP
3C
66
FF
F3
F3
F3
FF
66
3C
ENDCHAR
STARTCHAR char170
ENCODING 170
SWIDTH 480 0
DWIDTH 8 0
BBX 7 9 1 3
BITMAP
7C
C6
C6
C6
C6
C6
7E
00
FE
ENDCHAR
STARTCHAR char171
ENCODING 171
SWIDTH 480 0
DWIDTH 8 0
BBX 7 6 1 2
BITMAP
66
FC
D8
D8
FC
66
ENDCHAR
STARTCHAR char172
ENCODING 172
SWIDTH 480 0
DWIDTH 8 0
BBX 7 3 1 3
BITMAP
FE
06
06
ENDCHAR
STARTCHAR char173
ENCODING 173
SWIDTH 480 0
DWIDTH 8 0
BBX 7 1 1 3
BITMAP
FE
ENDCHAR
STARTCHAR char174
ENCODING 174
SWIDTH 480 0
DWIDTH 8 0
BBX 8 9 1 0
BITMAP
3C
66
FB
FF
F3
F3
F3
66
3C
ENDCHAR
STARTCHAR char175
ENCODING 175
SWIDTH 480 0
DWIDTH 8 0
BBX 7 1 1 8
BITMAP
FE
ENDCHAR
STARTCHAR char176
ENCODING 176
SWIDTH 480 0
DWIDTH 8 0
BBX 6 5 2 3
BITMAP
30
78
CC
78
30
ENDCHAR
STARTCHAR char177
ENCODING 177
SWIDTH 480 0
DWIDTH 8 0
BBX 8 7 1 1
BITMAP
18
18
FF
18
18
18
FF
ENDCHAR
STARTCHAR char178
ENCODING 178
SWIDTH 480 0
DWIDTH 8 0
BBX 6 6 2 3
BITMAP
3C
7C
CC
78
30
FC
ENDCHAR
STARTCHAR char179
ENCODING 179
SWIDTH 480 0
DWIDTH 8 0
BBX 6 6 2 4
BITMAP
FC
18
30
18
0C
F8
ENDCHAR
STARTCHAR char180
ENCODING 180
SWIDTH 480 0
DWIDTH 8 0
BBX 5 4 2 5
BITMAP
18
30
60
C0
ENDCHAR
STARTCHAR char181
ENCODING 181
SWIDTH 480 0
DWIDTH 8 0
BBX 7 10 1 -3
BITMAP
C6
C6
C6
C6
C6
C6
FC
C0
C0
C0
ENDCHAR
STARTCHAR char182
ENCODING 182
SWIDTH 480 0
DWIDTH 8 0
BBX 7 11 1 -3
BITMAP
3E
76
F6
F6
76
36
36
36
36
3C
38
ENDCHAR
STARTCHAR char183
ENCODING 183
SWIDTH 480 0
DWIDTH 8 0
BBX 3 1 3 3
BITMAP
E0
ENDCHAR
STARTCHAR char184
ENCODING 184
SWIDTH 480 0
DWIDTH 8 0
BBX 4 3 2 -3
BITMAP
30
30
F0
ENDCHAR
STARTCHAR char185
ENCODING 185
SWIDTH 480 0
DWIDTH 8 0
BBX 6 6 2 4
BITMAP
70
F0
30
30
30
FC
ENDCHAR
STARTCHAR char186
ENCODING 186
SWIDTH 480 0
DWIDTH 8 0
BBX 6 7 1 2
BITMAP
30
78
CC
78
30
00
FC
ENDCHAR
STARTCHAR char187
ENCODING 187
SWIDTH 480 0
DWIDTH 8 0
BBX 7 6 1 2
BITMAP
CC
7E
36
36
7E
CC
ENDCHAR
STARTCHAR char188
ENCODING 188
SWIDTH 480 0
DWIDTH 8 0
BBX 7 12 1 -2
BITMAP
18
18
18
18
00
FE
00
6C
6C
7C
0C
0C
ENDCHAR
STARTCHAR char189
ENCODING 189
SWIDTH 480 0
DWIDTH 8 0
BBX 7 12 1 -2
BITMAP
18
18
18
18
00
FE
00
38
6C
18
30
7C
ENDCHAR
STARTCHAR char190
ENCODING 190
SWIDTH 480 0
DWIDTH 8 0
BBX 7 14 1 -2
BITMAP
7C
0C
1C
0C
0C
7C
00
FE
00
6C
6C
7C
0C
0C
ENDCHAR
STARTCHAR char191
ENCODING 191
SWIDTH 480 0
DWIDTH 8 0
BBX 7 9 1 0
BITMAP
18
18
00
18
18
F0
C0
C0
7E
ENDCHAR
STARTCHAR char192
ENCODING 192
SWIDTH 480 0
DWIDTH 8 0
BBX 7 12 1 0
BITMAP
30
18
00
7C
C6
C6
C6
FE
C6
C6
C6
C6
ENDCHAR
STARTCHAR char193
ENCODING 193
SWIDTH 480 0
DWIDTH 8 0
BBX 7 12 1 0
BITMAP
18
30
00
7C
C6
C6
C6
FE
C6
C6
C6
C6
ENDCHAR
STARTCHAR char194
ENCODING 194
SWIDTH 480 0
DWIDTH 8 0
BBX 7 12 1 0
BITMAP
7C
C6
00
7C
C6
C6
C6
FE
C6
C6
C6
C6
ENDCHAR
STARTCHAR char195
ENCODING 195
SWIDTH 480 0
DWIDTH 8 0
BBX 7 12 1 0
BITMAP
76
DC
00
7C
C6
C6
C6
FE
C6
C6
C6
C6
ENDCHAR
STARTCHAR char196
ENCODING 196
SWIDTH 480 0
DWIDTH 8 0
BBX 7 11 1 0
BITMAP
EE
00
7C
C6
C6
C6
FE
C6
C6
C6
C6
ENDCHAR
STARTCHAR char197
ENCODING 197
SWIDTH 480 0
DWIDTH 8 0
BBX 7 11 1 0
BITMAP
38
00
7C
C6
C6
C6
FE
C6
C6
C6
C6
ENDCHAR
STARTCHAR char198
ENCODING 198
SWIDTH 480 0
DWIDTH 8 0
BBX 7 9 1 0
BITMAP
7E
D8
D8
D8
FC
D8
D8
D8
DE
ENDCHAR
STARTCHAR char199
ENCODING 199
SWIDTH 480 0
DWIDTH 8 0
BBX 7 12 1 -3
BITMAP
7C
C6
C0
C0
C0
C0
C0
C6
7C
0C
0C
7C
ENDCHAR
STARTCHAR char200
ENCODING 200
SWIDTH 480 0
DWIDTH 8 0
BBX 7 12 1 0
BITMAP
30
18
00
FE
C0
C0
F0
C0
C0
C0
C0
FE
ENDCHAR
STARTCHAR char201
ENCODING 201
SWIDTH 480 0
DWIDTH 8 0
BBX 7 12 1 0
BITMAP
18
30
00
FE
C0
C0
F0
C0
C0
C0
C0
FE
ENDCHAR
STARTCHAR char202
ENCODING 202
SWIDTH 480 0
DWIDTH 8 0
BBX 7 12 1 0
BITMAP
7C
C6
00
FE
C0
C0
F0
C0
C0
C0
C0
FE
ENDCHAR
STARTCHAR char203
ENCODING 203
SWIDTH 480 0
DWIDTH 8 0
BBX 7 11 1 0
BITMAP
EE
00
FE
C0
C0
F0
C0
C0
C0
C0
FE
ENDCHAR
STARTCHAR char204
ENCODING 204
SWIDTH 480 0
DWIDTH 8 0
BBX 6 12 1 0
BITMAP
60
30
00
FC
30
30
30
30
30
30
30
FC
ENDCHAR
STARTCHAR char205
ENCODING 205
SWIDTH 480 0
DWIDTH 8 0
BBX 6 12 1 0
BITMAP
18
30
00
FC
30
30
30
30
30
30
30
FC
ENDCHAR
STARTCHAR char206
ENCODING 206
SWIDTH 480 0
DWIDTH 8 0
BBX 6 12 1 0
BITMAP
78
CC
00
FC
30
30
30
30
30
30
30
FC
ENDCHAR
STARTCHAR char207
ENCODING 207
SWIDTH 480 0
DWIDTH 8 0
BBX 6 11 1 0
BITMAP
FC
00
FC
30
30
30
30
30
30
30
FC
ENDCHAR
STARTCHAR char208
ENCODING 208
SWIDTH 480 0
DWIDTH 8 0
BBX 7 9 1 0
BITMAP
70
78
6C
66
F6
66
6C
78
70
ENDCHAR
STARTCHAR char209
ENCODING 209
SWIDTH 480 0
DWIDTH 8 0
BBX 7 12 1 0
BITMAP
76
DC
00
C6
E6
E6
F6
DE
CE
CE
C6
C6
ENDCHAR
STARTCHAR char210
ENCODING 210
SWIDTH 480 0
DWIDTH 8 0
BBX 7 12 1 0
BITMAP
30
18
00
7C
C6
C6
C6
C6
C6
C6
C6
7C
ENDCHAR
STARTCHAR char211
ENCODING 211
SWIDTH 480 0
DWIDTH 8 0
BBX 7 12 1 0
BITMAP
18
30
00
7C
C6
C6
C6
C6
C6
C6
C6
7C
ENDCHAR
STARTCHAR char212
ENCODING 212
SWIDTH 480 0
DWIDTH 8 0
BBX 7 12 1 0
BITMAP
7C
C6
00
7C
C6
C6
C6
C6
C6
C6
C6
7C
ENDCHAR
STARTCHAR char213
ENCODING 213
SWIDTH 480 0
DWIDTH 8 0
BBX 7 12 1 0
BITMAP
76
DC
00
7C
C6
C6
C6
C6
C6
C6
C6
7C
ENDCHAR
STARTCHAR char214
ENCODING 214
SWIDTH 480 0
DWIDTH 8 0
BBX 7 11 1 0
BITMAP
EE
00
7C
C6
C6
C6
C6
C6
C6
C6
7C
ENDCHAR
STARTCHAR char215
ENCODING 215
SWIDTH 480 0
DWIDTH 8 0
BBX 7 6 1 2
BITMAP
C6
6C
38
38
6C
C6
ENDCHAR
STARTCHAR char216
ENCODING 216
SWIDTH 480 0
DWIDTH 8 0
BBX 8 10 0 0
BITMAP
3E
63
63
67
6F
7B
73
63
E3
3E
ENDCHAR
STARTCHAR char217
ENCODING 217
SWIDTH 480 0
DWIDTH 8 0
BBX 7 12 1 0
BITMAP
30
18
00
C6
C6
C6
C6
C6
C6
C6
C6
7E
ENDCHAR
STARTCHAR char218
ENCODING 218
SWIDTH 480 0
DWIDTH 8 0
BBX 7 12 1 0
BITMAP
18
30
00
C6
C6
C6
C6
C6
C6
C6
C6
7E
ENDCHAR
STARTCHAR char219
ENCODING 219
SWIDTH 480 0
DWIDTH 8 0
BBX 7 12 1 0
BITMAP
38
6C
00
C6
C6
C6
C6
C6
C6
C6
C6
7E
ENDCHAR
STARTCHAR char220
ENCODING 220
SWIDTH 480 0
DWIDTH 8 0
BBX 7 11 1 0
BITMAP
EE
00
C6
C6
C6
C6
C6
C6
C6
C6
7E
ENDCHAR
STARTCHAR char221
ENCODING 221
SWIDTH 480 0
DWIDTH 8 0
BBX 7 12 1 0
BITMAP
18
30
00
C6
C6
C6
C6
7E
06
C6
C6
7C
ENDCHAR
STARTCHAR char222
ENCODING 222
SWIDTH 480 0
DWIDTH 8 0
BBX 7 9 1 0
BITMAP
C0
F8
CC
C6
C6
C6
CC
F8
C0
ENDCHAR
STARTCHAR char223
ENCODING 223
SWIDTH 480 0
DWIDTH 8 0
BBX 7 10 1 -2
BITMAP
70
D8
D8
FC
E6
C6
C6
FC
C0
C0
ENDCHAR
STARTCHAR char224
ENCODING 224
SWIDTH 480 0
DWIDTH 8 0
BBX 7 10 1 0
BITMAP
30
18
00
7E
C6
C6
C6
C6
C6
7E
ENDCHAR
STARTCHAR char225
ENCODING 225
SWIDTH 480 0
DWIDTH 8 0
BBX 7 10 1 0
BITMAP
18
30
00
7E
C6
C6
C6
C6
C6
7E
ENDCHAR
STARTCHAR char226
ENCODING 226
SWIDTH 480 0
DWIDTH 8 0
BBX 7 10 1 0
BITMAP
38
6C
00
7E
C6
C6
C6
C6
C6
7E
ENDCHAR
STARTCHAR char227
ENCODING 227
SWIDTH 480 0
DWIDTH 8 0
BBX 7 10 1 0
BITMAP
76
DC
00
7E
C6
C6
C6
C6
C6
7E
ENDCHAR
STARTCHAR char228
ENCODING 228
SWIDTH 480 0
DWIDTH 8 0
BBX 7 9 1 0
BITMAP
EE
00
7E
C6
C6
C6
C6
C6
7E
ENDCHAR
STARTCHAR char229
ENCODING 229
SWIDTH 480 0
DWIDTH 8 0
BBX 7 9 1 0
BITMAP
38
00
7E
C6
C6
C6
C6
C6
7E
ENDCHAR
STARTCHAR char230
ENCODING 230
SWIDTH 480 0
DWIDTH 8 0
BBX 7 7 1 0
BITMAP
7E
D8
D8
FC
D8
D8
DE
ENDCHAR
STARTCHAR char231
ENCODING 231
SWIDTH 480 0
DWIDTH 8 0
BBX 7 10 1 -3
BITMAP
7C
C6
C0
C0
C0
C6
7C
0C
0C
7C
ENDCHAR
STARTCHAR char232
ENCODING 232
SWIDTH 480 0
DWIDTH 8 0
BBX 7 10 1 0
BITMAP
30
18
00
7C
C6
C6
FE
C0
C0
7E
ENDCHAR
STARTCHAR char233
ENCODING 233
SWIDTH 480 0
DWIDTH 8 0
BBX 7 10 1 0
BITMAP
18
30
00
7C
C6
C6
FE
C0
C0
7E
ENDCHAR
STARTCHAR char234
ENCODING 234
SWIDTH 480 0
DWIDTH 8 0
BBX 7 10 1 0
BITMAP
38
6C
00
7C
C6
C6
FE
C0
C0
7E
ENDCHAR
STARTCHAR char235
ENCODING 235
SWIDTH 480 0
DWIDTH 8 0
BBX 7 9 1 0
BITMAP
EE
00
7C
C6
C6
FE
C0
C0
7E
ENDCHAR
STARTCHAR char236
ENCODING 236
SWIDTH 480 0
DWIDTH 8 0
BBX 6 10 1 0
BITMAP
60
30
00
F0
30
30
30
30
30
3C
ENDCHAR
STARTCHAR char237
ENCODING 237
SWIDTH 480 0
DWIDTH 8 0
BBX 6 10 1 0
BITMAP
18
30
00
F0
30
30
30
30
30
3C
ENDCHAR
STARTCHAR char238
ENCODING 238
SWIDTH 480 0
DWIDTH 8 0
BBX 6 10 1 0
BITMAP
38
6C
00
F0
30
30
30
30
30
3C
ENDCHAR
STARTCHAR char239
ENCODING 239
SWIDTH 480 0
DWIDTH 8 0
BBX 6 9 1 0
BITMAP
FC
00
F0
30
30
30
30
30
3C
ENDCHAR
STARTCHAR char240
ENCODING 240
SWIDTH 480 0
DWIDTH 8 0
BBX 7 9 1 0
BITMAP
7C
06
06
7E
C6
C6
C6
C6
7C
ENDCHAR
STARTCHAR char241
ENCODING 241
SWIDTH 480 0
DWIDTH 8 0
BBX 7 10 1 0
BITMAP
76
DC
00
FC
C6
C6
C6
C6
C6
C6
ENDCHAR
STARTCHAR char242
ENCODING 242
SWIDTH 480 0
DWIDTH 8 0
BBX 7 10 1 0
BITMAP
30
18
00
7C
C6
C6
C6
C6
C6
7C
ENDCHAR
STARTCHAR char243
ENCODING 243
SWIDTH 480 0
DWIDTH 8 0
BBX 7 10 1 0
BITMAP
18
30
00
7C
C6
C6
C6
C6
C6
7C
ENDCHAR
STARTCHAR char244
ENCODING 244
SWIDTH 480 0
DWIDTH 8 0
BBX 7 10 1 0
BITMAP
7C
C6
00
7C
C6
C6
C6
C6
C6
7C
ENDCHAR
STARTCHAR char245
ENCODING 245
SWIDTH 480 0
DWIDTH 8 0
BBX 7 10 1 0
BITMAP
76
DC
00
7C
C6
C6
C6
C6
C6
7C
ENDCHAR
STARTCHAR char246
ENCODING 246
SWIDTH 480 0
DWIDTH 8 0
BBX 7 9 1 0
BITMAP
EE
00
7C
C6
C6
C6
C6
C6
7C
ENDCHAR
STARTCHAR char247
ENCODING 247
SWIDTH 480 0
DWIDTH 8 0
BBX 7 7 1 2
BITMAP
38
00
00
FE
00
00
38
ENDCHAR
STARTCHAR char248
ENCODING 248
SWIDTH 480 0
DWIDTH 8 0
BBX 8 8 0 0
BITMAP
01
3F
67
6F
7B
73
63
FE
ENDCHAR
STARTCHAR char249
ENCODING 249
SWIDTH 480 0
DWIDTH 8 0
BBX 7 10 1 0
BITMAP
30
18
00
C6
C6
C6
C6
C6
C6
7E
ENDCHAR
STARTCHAR char250
ENCODING 250
SWIDTH 480 0
DWIDTH 8 0
BBX 7 10 1 0
BITMAP
18
30
00
C6
C6
C6
C6
C6
C6
7E
ENDCHAR
STARTCHAR char251
ENCODING 251
SWIDTH 480 0
DWIDTH 8 0
BBX 7 10 1 0
BITMAP
38
6C
00
C6
C6
C6
C6
C6
C6
7E
ENDCHAR
STARTCHAR char252
ENCODING 252
SWIDTH 480 0
DWIDTH 8 0
BBX 7 9 1 0
BITMAP
EE
00
C6
C6
C6
C6
C6
C6
7E
ENDCHAR
STARTCHAR char253
ENCODING 253
SWIDTH 480 0
DWIDTH 8 0
BBX 7 13 1 -3
BITMAP
18
30
00
C6
C6
C6
C6
C6
C6
7E
06
C6
7C
ENDCHAR
STARTCHAR char254
ENCODING 254
SWIDTH 480 0
DWIDTH 8 0
BBX 7 10 1 -2
BITMAP
C0
C0
F8
CC
C6
C6
CC
F8
C0
C0
ENDCHAR
STARTCHAR char255
ENCODING 255
SWIDTH 480 0
DWIDTH 8 0
BBX 7 12 1 -3
BITMAP
EE
00
C6
C6
C6
C6
C6
C6
7E
06
C6
7C
ENDCHAR
ENDFONT
